<svg width="24" height="24" viewBox="0 0 24 24" fill="none" xmlns="http://www.w3.org/2000/svg">
<path d="M14.5689 16.3929C14.5689 16.5737 14.4283 16.7143 14.2475 16.7143H9.74749C9.56669 16.7143 9.42606 16.5737 9.42606 16.3929V14.7857C9.42606 14.6049 9.56669 14.4643 9.74749 14.4643H10.7118V11.25H9.74749C9.56669 11.25 9.42606 11.1094 9.42606 10.9286V9.32143C9.42606 9.14062 9.56669 9 9.74749 9H12.9618C13.1426 9 13.2832 9.14062 13.2832 9.32143V14.4643H14.2475C14.4283 14.4643 14.5689 14.6049 14.5689 14.7857V16.3929ZM13.2832 7.39286C13.2832 7.57366 13.1426 7.71429 12.9618 7.71429H11.0332C10.8524 7.71429 10.7118 7.57366 10.7118 7.39286V5.78571C10.7118 5.60491 10.8524 5.46429 11.0332 5.46429H12.9618C13.1426 5.46429 13.2832 5.60491 13.2832 5.78571V7.39286ZM19.7118 11.5714C19.7118 7.3125 16.2564 3.85714 11.9975 3.85714C7.73856 3.85714 4.2832 7.3125 4.2832 11.5714C4.2832 15.8304 7.73856 19.2857 11.9975 19.2857C16.2564 19.2857 19.7118 15.8304 19.7118 11.5714Z" fill="white"/>
</svg>
